<?xml version="1.0" encoding="UTF-8"?> <svg xmlns="http://www.w3.org/2000/svg" id="Layer_2" viewBox="0 0 399.86 52.81"><defs><style>.cls-1{fill:#4f0c68;}</style></defs><g id="Layer_1-2"><path class="cls-1" d="M56.86,22.41c0-9.1-6.25-16.34-13.94-16.34l-25.38-.07C7.87,6,0,15.31,0,26.76v2.98l.27-1.03c1.24-4.83,3.86-9.11,7.37-12.03l.14-.11c.07-.06.15-.12.22-.18,3.86-3.06,8.2-3.92,11.15-4.11l23.65.08c4.8.25,8.64,4.42,8.64,10.06s-3.87,10.26-8.64,10.38H15.6c-1.46,0-2.65,1.41-2.65,3.14s1.19,3.14,2.65,3.14l24.95.05,3.42,7.4-27.85-.05c-4.74,0-8.69-4.29-8.77-9.9-.07-5.71,3.83-10.54,8.64-10.54h27.14c1.42,0,2.7-1.4,2.77-3.08.07-1.8-1.22-3.38-2.73-3.38l-24.29-.05c-4.52-.13-6.75.65-6.75.65-5.89,1.93-10.36,8.67-10.36,16.25s4.47,13.81,10.36,15.74l1.15.18c1.71.27,3.43.41,5.15.41l34.52.06-6.32-14.33c5.89-1.93,10.23-8.49,10.23-16.06Z"></path><path class="cls-1" d="M93.86,16.09c0,.31-.11.65-.33,1.02-.29.37-.65.56-1.1.56-.26,0-.51-.08-.76-.26-2.55-1.8-5.34-2.7-8.36-2.7-2.58,0-4.91.65-7,1.94-2.09,1.29-3.73,3.11-4.92,5.44-1.19,2.33-1.79,4.98-1.79,7.94s.6,5.71,1.82,8.04c1.21,2.33,2.86,4.13,4.95,5.41,2.09,1.28,4.4,1.91,6.95,1.91,3.03,0,5.8-.88,8.31-2.65.25-.17.53-.26.81-.26.45,0,.81.2,1.1.61.22.27.33.6.33.97,0,.54-.22.95-.67,1.23-1.24.89-2.77,1.63-4.59,2.22s-3.58.89-5.3.89c-3.03,0-5.82-.77-8.39-2.32-2.56-1.55-4.6-3.72-6.12-6.51-1.51-2.79-2.27-5.97-2.27-9.54s.75-6.56,2.25-9.37c1.5-2.81,3.52-5,6.07-6.58,2.55-1.58,5.37-2.37,8.46-2.37,1.78,0,3.53.27,5.23.82,1.7.54,3.24,1.31,4.61,2.3.48.31.72.73.72,1.28ZM101.96,47.45c-.27.29-.61.43-1.03.43s-.76-.14-1.03-.43c-.27-.29-.41-.65-.41-1.1V11.65c0-.44.14-.81.41-1.1.27-.29.61-.43,1.03-.43s.76.14,1.03.43c.27.29.41.66.41,1.1v34.7c0,.44-.14.81-.41,1.1ZM130.7,41.76c-1.05,2.08-2.5,3.7-4.35,4.87-1.85,1.17-3.9,1.76-6.16,1.76s-4.32-.59-6.16-1.76c-1.85-1.17-3.3-2.8-4.35-4.87-1.05-2.08-1.58-4.39-1.58-6.94s.53-4.87,1.58-6.94c1.05-2.08,2.5-3.71,4.35-4.9,1.85-1.19,3.9-1.79,6.16-1.79s4.32.6,6.16,1.79c1.85,1.19,3.3,2.82,4.35,4.9,1.05,2.08,1.58,4.39,1.58,6.94s-.53,4.87-1.58,6.94ZM128.22,29.31c-.8-1.63-1.9-2.92-3.32-3.85-1.42-.94-2.99-1.4-4.71-1.4s-3.28.47-4.68,1.4c-1.4.94-2.51,2.22-3.32,3.85-.81,1.63-1.22,3.47-1.22,5.51s.41,3.83,1.22,5.46c.81,1.63,1.92,2.92,3.32,3.85,1.4.94,2.96,1.4,4.68,1.4s3.29-.46,4.71-1.38c1.42-.92,2.52-2.19,3.32-3.83.8-1.63,1.19-3.47,1.19-5.51s-.4-3.88-1.19-5.51ZM157.43,22.39c.27.29.41.66.41,1.1v14.39c0,3.33-.88,5.89-2.63,7.68-1.75,1.79-4.17,2.68-7.26,2.68s-5.46-.89-7.19-2.68c-1.74-1.79-2.6-4.35-2.6-7.68v-14.39c0-.44.14-.81.41-1.1.27-.29.61-.43,1.03-.43s.76.14,1.03.43c.27.29.41.66.41,1.1v14.39c0,2.45.6,4.31,1.82,5.59,1.21,1.28,2.91,1.91,5.11,1.91s3.96-.64,5.18-1.91c1.23-1.28,1.84-3.14,1.84-5.59v-14.39c0-.44.13-.81.41-1.1.27-.29.61-.43,1.03-.43s.76.14,1.03.43ZM186.19,10.55c.27.29.41.66.41,1.1v34.7c0,.44-.14.81-.41,1.1-.27.29-.61.43-1.03.43s-.76-.14-1.03-.43c-.27-.29-.41-.65-.41-1.1v-3.57c-.8,1.57-1.98,2.89-3.56,3.98-1.58,1.09-3.32,1.63-5.23,1.63-2.1,0-4.01-.59-5.71-1.76-1.7-1.17-3.05-2.8-4.04-4.87-.99-2.08-1.48-4.41-1.48-6.99s.49-4.87,1.48-6.94c.99-2.07,2.33-3.7,4.04-4.87,1.7-1.17,3.59-1.76,5.66-1.76,1.88,0,3.61.5,5.21,1.51,1.59,1,2.8,2.31,3.63,3.9v-14.95c0-.44.14-.81.41-1.1.27-.29.61-.43,1.03-.43s.76.14,1.03.43ZM179.7,44.16c1.32-.92,2.36-2.2,3.11-3.85.75-1.65,1.12-3.5,1.12-5.54s-.37-3.83-1.12-5.46c-.75-1.63-1.78-2.92-3.11-3.85-1.32-.94-2.81-1.4-4.47-1.4s-3.15.47-4.47,1.4c-1.32.94-2.36,2.22-3.11,3.85-.75,1.63-1.12,3.45-1.12,5.46s.37,3.88,1.12,5.51c.75,1.63,1.78,2.92,3.11,3.85,1.32.94,2.81,1.4,4.47,1.4s3.15-.46,4.47-1.38ZM223.96,27.42c0,4.24-2.25,6.63-6.12,7.86,2.72,4.03,4.87,8.57,6.69,12.61-2.39.2-6.5.2-8.89,0-1.67-3.73-3.73-7.86-6.21-11.69h-7.07v11.69c-2.48.2-5.83.2-8.36,0V13.13h16.2c8.46,0,13.76,2.35,13.76,8.88v5.41ZM215.6,24.1c0-3.16-2.53-3.52-5.69-3.52h-7.55v8.37h7.55c3.11,0,5.69-.41,5.69-3.47v-1.38ZM257.4,37.06c-4.01.31-13.9.36-19.06.05v.61c0,3.11,2.2,3.83,8.12,3.83,3.58,0,6.26-.31,9.79-.82.24,2.09.24,4.7,0,6.79-4.35.66-7.74.97-11.94.97-8.65,0-14.24-2.25-14.24-9.03v-9.7c0-7.09,5.78-9.19,13.86-9.19,6.83,0,13.47,2.3,13.47,10.21v6.28ZM249.38,30.79c0-2.91-2.72-3.27-5.54-3.27s-5.49.36-5.49,3.22v1.63l2.53-.26h8.5v-1.33ZM283.83,32.47c0-3.88-2.34-4.44-5.69-4.44-3.82,0-5.26.61-6.35,3.27v16.59c-1.96.26-6.31.26-8.27,0v-26.79c1.91-.2,5.49-.2,7.41,0l.11,1.38s5.52-1.89,10.63-1.89c6.02,0,10.42,1.94,10.42,7.6v19.7c-1.91.26-6.35.26-8.27,0v-15.41ZM309.48,27.93v8.63c0,4.29,2.15,4.54,4.4,4.54,1.29,0,2.63-.1,3.82-.26.24,2.04.24,5.05,0,7.09-2.01.41-3.87.56-6.16.56-5.45,0-10.32-2.04-10.32-8.88v-11.69h-4.44c-.24-2.09-.24-4.29,0-6.33l4.44-.31v-6.53c1.96-.26,6.31-.26,8.27,0v6.43h8.22c.24,2.09.24,4.7,0,6.74h-8.22ZM267.64,16.55l1.31-1.74M270.93,21.09l-.23.13M271.04,21.63l-.81.65"></path><path class="cls-1" d="M324.82,5.56c1.3,1.31,1.95,2.88,1.95,4.72s-.67,3.5-2,4.8c-1.3,1.26-2.85,1.89-4.67,1.89s-3.46-.64-4.74-1.93c-1.29-1.29-1.93-2.87-1.93-4.75s.69-3.57,2.08-4.87c1.3-1.21,2.83-1.81,4.59-1.81s3.41.65,4.71,1.96ZM320.11,4.74c-1.53,0-2.84.56-3.92,1.67-1.06,1.09-1.59,2.38-1.59,3.87s.54,2.86,1.62,3.94c1.07,1.08,2.37,1.62,3.89,1.62s2.81-.54,3.88-1.63c1.07-1.09,1.61-2.41,1.61-3.93s-.53-2.78-1.6-3.87c-1.08-1.11-2.38-1.67-3.89-1.67ZM319.12,11.38v2.62h-1.94v-7.41c.46,0,1.14,0,2.06,0s1.42,0,1.52.01c.59.04,1.07.17,1.46.38.66.36.99.95.99,1.77,0,.62-.17,1.07-.52,1.35-.35.28-.77.44-1.28.5.46.1.81.24,1.05.43.43.35.65.9.65,1.66v.66c0,.07,0,.15.01.22,0,.07.03.15.05.22l.06.21h-1.85c-.06-.24-.1-.58-.12-1.02-.02-.45-.06-.75-.12-.91-.1-.26-.28-.44-.54-.54-.14-.06-.36-.1-.66-.12l-.42-.03h-.41ZM319.88,10.05c.45,0,.8-.09,1.06-.27.25-.18.38-.47.38-.88s-.2-.69-.6-.84c-.26-.1-.64-.15-1.12-.15h-.47v2.15h.75Z"></path><path class="cls-1" d="M373.98,46.79v.12c0,2.14-1.75,3.88-3.9,3.88h-11.61c-2.16,0-3.9-1.74-3.9-3.88v-.12c0-2.14,1.75-3.88,3.9-3.88h4.77l-5.83-13.47-8.03,18.56c-.97,2.24-3.58,3.27-5.83,2.31-2.25-.96-3.29-3.56-2.32-5.79l11.78-27.24c.77-1.77,2.57-2.79,4.4-2.65,1.83-.13,3.63.88,4.4,2.65l11.78,27.24c.26.59.37,1.21.36,1.82.02.15.03.3.03.46ZM399.34,12.67c-.74.8-1.99.85-2.8.12-.08-.07-.14-.14-.2-.22l-5.48,3.52c1.99,5.19.02,10.7-3.8,13.72v16.34c0,2.68-2.19,4.85-4.89,4.85s-4.89-2.17-4.89-4.85v-14.15c-2.72-.58-5.24-2.09-6.99-4.4-3.35-4.41-3.13-10.74.53-14.91,2.5-2.84,6.25-4.29,9.96-3.99l.15-3.83c-.37-.1-.73-.29-1.03-.57-1.01-.93-1.08-2.49-.15-3.5.93-1.01,2.51-1.07,3.52-.14,1.01.93,1.08,2.49.15,3.5-.5.54-1.17.8-1.85.8l-.15,3.82c.67.09,1.34.24,2,.45.88.28,1.72.68,2.51,1.18l.44-.91c-.08-.06-.17-.12-.24-.19-.8-.74-.85-1.98-.12-2.78.74-.8,1.99-.85,2.8-.12.81.73.86,1.98.12,2.78-.52.56-1.28.75-1.97.57l-.48,1c1.74,1.22,3.19,2.89,4.12,4.73l5.43-3.48c-.24-.67-.12-1.44.4-2,.74-.8,1.99-.85,2.8-.12.8.74.86,1.98.12,2.78ZM384.46,14.96c1.15.61,2.02,1.66,2.39,2.93l2.98-1.91c-.87-1.72-2.2-3.2-3.79-4.31l-1.58,3.29ZM381.39,9.72l-.19,4.77c.31-.06.63-.1.97-.1.6,0,1.18.11,1.71.31l1.63-3.38c-1.26-.78-2.66-1.34-4.11-1.6ZM377.28,31.17v-11.92c0-.39.05-.77.14-1.13l-2.62-1.61s0,0,0,0c-.59.64-1.57.69-2.22.11-.64-.59-.67-1.57-.08-2.2.59-.64,1.59-.68,2.23-.09.56.51.66,1.32.29,1.94l2.48,1.52c.46-1.46,1.6-2.61,3.05-3.12l.2-5.05c-1.27-.15-2.56-.08-3.83.25-4.74,1.24-8.15,5.65-8.19,10.51-.04,5.11,3.61,9.63,8.55,10.79ZM390.2,16.5l-3.18,2.04c.08.46.09.94.03,1.4v8.65c1.56-1.4,2.77-3.23,3.42-5.32.5-1.87.63-4.61-.26-6.77Z"></path></g></svg> 