<svg data-name="The Good Guys" xmlns="http://www.w3.org/2000/svg" width="506" height="96" viewBox="0 0 506 96">
  <rect fill="#1966AF" width="487" height="96"/>
  <rect fill="#ed1c24" x="490" width="16" height="96"/>
  <path fill="#FFFFFF" d="m33.7,73.5v-37.9h-8.4v-12.9h31v12.9h-8.4v37.9h-14.2Zm24.4-50.7h14.2v18.2h6v-18.2h14.2v50.7h-14.2v-19.9h-6.1v19.9h-14.2V22.8Zm37.4,0h25.2v12.3h-11v6.5h9.9v11.9h-9.9v7h11v13.1h-25.2V22.8Zm81.4,25.7c0,17.6-5.6,26-17.8,26s-19-9.3-19-26.3,7-26.4,19.3-26.4,14.1,3.9,16.9,12.4l-12.3,4.2c-1.1-3.4-2.4-5-4.8-5-3.9,0-4.8,4.6-4.8,14.2s.9,14,4.7,14,3.9-2.2,3.9-6.6v-.7h-4.2v-10.3h17.9c0,1.6.1,3.1.1,4.6Zm21.4-26.7c11.9,0,18.9,9.4,18.9,26.4s-7,26.3-18.9,26.3-19-9.3-19-26.3c0-17,7.1-26.4,19-26.4Zm0,39.8c3.8,0,4.6-4.3,4.6-13.7s-.8-13.7-4.6-13.7-4.7,4.3-4.7,13.7.9,13.7,4.7,13.7Zm40.5-39.8c11.9,0,18.9,9.4,18.9,26.4s-7,26.3-18.9,26.3-19-9.3-19-26.3c0-17,7.1-26.4,19-26.4Zm0,39.8c3.8,0,4.6-4.3,4.6-13.7s-.8-13.7-4.6-13.7-4.7,4.3-4.7,13.7c0,9.5.9,13.7,4.7,13.7Zm32.3-38.8c8.3,0,13.8.8,18.9,6.2,3.6,4,5.6,10.5,5.6,19.2,0,16.8-7.3,25.3-21.4,25.3h-13.7V22.8h10.5Zm3.6,37.9h.6c4.7,0,5.9-4,5.9-12.8s-1.1-13-6-13h-.5v25.8Zm76.1-12.2c0,17.6-5.6,26-17.8,26s-19-9.3-19-26.3,7-26.4,19.3-26.4,14.1,3.9,16.9,12.4l-12.3,4.2c-1.1-3.4-2.4-5-4.8-5-3.9,0-4.8,4.6-4.8,14.2s.9,14,4.7,14,3.9-2.2,3.9-6.6v-.7h-4.2v-10.3h17.9c0,1.6.1,3.1.1,4.6Zm2.3-25.7h14.2v33.9c0,2.9,1,4.3,3.3,4.3s3.3-1.4,3.3-4.3V22.8h14.2v32.6c0,13.2-5.3,19.1-17.5,19.1s-17.4-6-17.4-19.1V22.8Zm50.2,0l3.8,15.6,3.8-15.6h14.9l-11.7,30.4v20.4h-14.1v-20.4l-11.7-30.4s14.9,0,14.9,0Zm30.2,38.8c2.4,0,3.9-1.6,3.9-3.6s-1.6-3.3-3.8-5.4c-6-5.6-10-9.5-10-16.1s6.3-14.7,15.6-14.7,7.4,1,11.5,2.9v13.2c-3.4-2.7-6.4-4.1-8.8-4.1s-3.6,1.3-3.6,3.1,1.7,3.3,4.1,5.1c6.4,5.1,10.1,8.6,10.1,16.1s-6.8,16.4-17.2,16.4-7.8-1.3-11.8-3.8v-14c4.2,3.3,7.6,4.9,10,4.9Zm27.1-36.4c.9.9,1.3,2,1.3,3.3s-.5,2.5-1.4,3.3c-.9.9-2.1,1.4-3.3,1.4s-2.4-.5-3.3-1.4c-.9-.9-1.4-2.1-1.4-3.3s.5-2.5,1.4-3.4c.9-.9,2-1.3,3.3-1.3,1.3,0,2.5.5,3.4,1.4Zm-6.1.5c-.8.8-1.2,1.7-1.2,2.8s.4,1.9,1.1,2.7c.7.8,1.7,1.2,2.7,1.2s2-.4,2.7-1.1c.7-.7,1.1-1.7,1.1-2.7s-.4-2-1.1-2.7c-.7-.8-1.7-1.2-2.8-1.2-1,0-2,.4-2.7,1.1Zm2.8,0c1.5,0,2.2.5,2.2,1.5s-.4,1.2-1.1,1.4l1.2,2.3h-1.6l-1-2.1h-.4v2.1h-1.4v-5.2s2.1,0,2.1,0Zm-.7,2.3h.5c.6,0,.9-.2.9-.7s-.3-.7-1-.7h-.4v1.4Z"/>
</svg>