<svg xmlns="http://www.w3.org/2000/svg" xmlns:xlink="http://www.w3.org/1999/xlink" width="214.859" height="81.847" viewBox="0 0 214.859 81.847">
  <defs>
    <filter id="Path_106438" x="0" y="50.798" width="32.448" height="31.049" filterUnits="userSpaceOnUse">
      <feOffset dx="1" dy="1" input="SourceAlpha"/>
      <feGaussianBlur stdDeviation="1" result="blur"/>
      <feFlood flood-opacity="0.2"/>
      <feComposite operator="in" in2="blur"/>
      <feComposite in="SourceGraphic"/>
    </filter>
  </defs>
  <g id="Group_116342" data-name="Group 116342" transform="translate(-91 -221)">
    <path id="Path_106436" data-name="Path 106436" d="M94.248,221.509H292.175a5.01,5.01,0,0,1,4.968,5.052v8.3a5.01,5.01,0,0,1-4.968,5.052H94.248a5.01,5.01,0,0,1-4.968-5.052v-8.3a5.01,5.01,0,0,1,4.968-5.052Z" transform="translate(8.716 55.459)" fill="#f47721" fill-rule="evenodd"/>
    <path id="Path_106437" data-name="Path 106437" d="M110.161,228.292v.023a1.892,1.892,0,0,1,1.678,1.909c0,1.783-1.564,2.385-3.126,2.385h-3.265v-8.2h3.265c1.273,0,2.791.453,2.791,2.107a1.807,1.807,0,0,1-1.343,1.772Zm-1.829-2.3h-.975v1.69h1.065c.743,0,1.17-.312,1.17-.89,0-.558-.427-.8-1.261-.8Zm.126,3.149h-1.1v1.875h1.114c.623,0,1.389-.173,1.389-.972,0-.682-.558-.9-1.4-.9Zm7.837,4.34a2.45,2.45,0,0,1-2.534,1.911,4.784,4.784,0,0,1-1.042-.126l.208-1.6a2.32,2.32,0,0,0,.615.1c.589,0,.785-.278.972-.775l.185-.476-2.41-5.673H114.4l1.286,3.7h.036l1.145-3.7h2.014l-2.583,6.633Zm10.211-4.109v-1.6h3.381v4.342a6.93,6.93,0,0,1-3.16.705,4.315,4.315,0,1,1-.059-8.624,4.663,4.663,0,0,1,3.162,1.088l-1.25,1.423a2.466,2.466,0,0,0-4.25,1.8,2.367,2.367,0,0,0,2.5,2.581,3.173,3.173,0,0,0,1.24-.219v-1.494Zm7.8,3.427a3.05,3.05,0,0,1-3.2-3.09,3.206,3.206,0,0,1,6.4,0,3.053,3.053,0,0,1-3.208,3.09Zm0-4.561a1.368,1.368,0,0,0-1.353,1.471,1.37,1.37,0,1,0,1.353-1.471Zm7.317,4.561a3.05,3.05,0,0,1-3.2-3.09,3.206,3.206,0,0,1,6.4,0,3.053,3.053,0,0,1-3.208,3.09Zm0-4.561a1.368,1.368,0,0,0-1.354,1.471,1.37,1.37,0,1,0,1.354-1.471Zm8.775,4.376v-.751h-.023a2.242,2.242,0,0,1-1.888.914,3.063,3.063,0,0,1-.021-6.09,2.275,2.275,0,0,1,1.76.777h.023v-3.6h1.9v8.752Zm-1.459-4.376a1.487,1.487,0,0,0,0,2.964,1.485,1.485,0,0,0,0-2.964Zm11.613,1.135v-1.6h3.378v4.342a6.923,6.923,0,0,1-3.16.705,4.315,4.315,0,1,1-.057-8.624,4.661,4.661,0,0,1,3.159,1.088l-1.25,1.423a2.466,2.466,0,0,0-4.25,1.8,2.368,2.368,0,0,0,2.5,2.581,3.169,3.169,0,0,0,1.238-.219v-1.494Zm8.693,3.242v-.8h-.023a1.97,1.97,0,0,1-1.737.962,2.082,2.082,0,0,1-2.094-2.362v-3.566H167.3v3.126c0,.648.162,1.227.857,1.227.659,0,1.019-.579,1.019-1.24v-3.113h1.9v5.765Zm6.565.867a2.454,2.454,0,0,1-2.536,1.911,4.8,4.8,0,0,1-1.042-.126l.208-1.6a2.319,2.319,0,0,0,.615.1c.589,0,.785-.278.972-.775l.185-.476-2.41-5.673h2.109l1.284,3.7h.036l1.145-3.7h2.014l-2.581,6.633Zm6.7-4.93a1.8,1.8,0,0,0-1.2-.522c-.358,0-.718.128-.718.463s.314.417,1.055.579c.878.2,1.84.638,1.84,1.76,0,1.459-1.286,1.968-2.467,1.968a3.729,3.729,0,0,1-2.511-.89l1.065-1.124a1.96,1.96,0,0,0,1.412.648c.314,0,.682-.128.682-.5s-.358-.476-1.145-.661-1.68-.589-1.68-1.68c0-1.377,1.3-1.932,2.4-1.932a3.461,3.461,0,0,1,2.315.81l-1.042,1.078Zm10.245,4.062v-3.427h-3.2v3.427h-1.979v-8.2h1.979v3.1h3.2v-3.1h1.981v8.2Zm6.473.185a3.05,3.05,0,0,1-3.2-3.09,3.206,3.206,0,0,1,6.4,0,3.055,3.055,0,0,1-3.208,3.09Zm0-4.561a1.367,1.367,0,0,0-1.354,1.471,1.369,1.369,0,1,0,1.354-1.471Zm11.773,4.376V229.46c0-.659-.149-1.217-.821-1.217-.648,0-.962.6-.962,1.252v3.113h-1.9v-3.288c0-.659-.255-1.078-.821-1.078-.6,0-.949.545-.949,1.24v3.126h-1.911v-5.765h1.842v.8h.023a1.928,1.928,0,0,1,1.724-.962,1.822,1.822,0,0,1,1.739.985,2.055,2.055,0,0,1,1.84-.985,2.108,2.108,0,0,1,2.094,2.362v3.566Zm9.043-2.362h-4.18a1.323,1.323,0,0,0,1.379,1.088,1.507,1.507,0,0,0,1.273-.6l1.32.834a3.023,3.023,0,0,1-2.616,1.227,3.069,3.069,0,1,1-.059-6.136,2.829,2.829,0,0,1,2.894,3.136c0,.152,0,.314-.011.453Zm-2.871-2.28a1.256,1.256,0,0,0-1.309,1.1h2.444a1.048,1.048,0,0,0-1.135-1.1Zm11.392-1.425a1.989,1.989,0,0,0-1.459-.705c-.509,0-1.147.173-1.147.821,0,.545.486.718,1.263.96,1.111.36,2.547.834,2.547,2.467,0,1.886-1.516,2.732-3.138,2.732a4.319,4.319,0,0,1-3.067-1.181l1.3-1.32a2.42,2.42,0,0,0,1.77.869c.6,0,1.135-.234,1.135-.893,0-.625-.625-.821-1.7-1.17-1.042-.335-2.1-.867-2.1-2.349,0-1.817,1.644-2.57,3.172-2.57a4.1,4.1,0,0,1,2.686,1.006l-1.261,1.332Zm8.114,3.7h-4.178a1.32,1.32,0,0,0,1.377,1.088,1.507,1.507,0,0,0,1.273-.6l1.32.834a3.018,3.018,0,0,1-2.616,1.227,3.069,3.069,0,1,1-.057-6.136A2.83,2.83,0,0,1,236.7,229.8c0,.152,0,.314-.013.453Zm-2.871-2.28a1.256,1.256,0,0,0-1.307,1.1h2.442a1.047,1.047,0,0,0-1.135-1.1Zm7.8.427a1.837,1.837,0,0,0-.486-.057,1.3,1.3,0,0,0-1.353,1.307v2.964h-1.9v-5.765h1.831v.834h.021a1.742,1.742,0,0,1,1.564-1,1.383,1.383,0,0,1,.406.046l-.082,1.667Zm4.412,4.214h-2.05l-2.269-5.765h2.1l1.215,3.74h.036l1.215-3.74H248.3l-2.267,5.765Zm3.97-6.563A1.043,1.043,0,1,1,251.086,225,1.064,1.064,0,0,1,250,226.046Zm.949,6.563h-1.9v-5.765h1.9v5.765Zm4.469-4.366a1.384,1.384,0,0,0-1.33,1.484,1.385,1.385,0,0,0,2.383,1.042l1.055,1.284a3.122,3.122,0,0,1-2.13.741,3.072,3.072,0,1,1-.011-6.136,3.181,3.181,0,0,1,2.141.775l-1.1,1.276a1.319,1.319,0,0,0-1.008-.465Zm8.567,2H259.8a1.323,1.323,0,0,0,1.379,1.088,1.507,1.507,0,0,0,1.273-.6l1.32.834a3.023,3.023,0,0,1-2.616,1.227,3.069,3.069,0,1,1-.057-6.136A2.831,2.831,0,0,1,264,229.8c0,.152,0,.314-.013.453Zm-2.871-2.28a1.257,1.257,0,0,0-1.309,1.1h2.444a1.048,1.048,0,0,0-1.135-1.1Zm7.456.579a1.8,1.8,0,0,0-1.2-.522c-.36,0-.718.128-.718.463s.314.417,1.052.579c.88.2,1.842.638,1.842,1.76,0,1.459-1.286,1.968-2.467,1.968a3.729,3.729,0,0,1-2.511-.89l1.065-1.124a1.961,1.961,0,0,0,1.412.648c.312,0,.682-.128.682-.5s-.358-.476-1.145-.661-1.68-.589-1.68-1.68c0-1.377,1.3-1.932,2.4-1.932a3.464,3.464,0,0,1,2.315.81l-1.042,1.078Z" transform="translate(23.058 56.93)" fill="#fff"/>
    <g transform="matrix(1, 0, 0, 1, 91, 221)" filter="url(#Path_106438)">
      <path id="Path_106438-2" data-name="Path 106438" d="M101.805,219.627c7.3,0,13.223,5.608,13.223,12.524s-5.919,12.524-13.223,12.524S88.58,239.068,88.58,232.151s5.921-12.524,13.225-12.524Z" transform="translate(-86.58 -166.83)" fill="#fff" fill-rule="evenodd"/>
    </g>
    <path id="Path_106439" data-name="Path 106439" d="M104.016,218.979v12c0,2.9.947,4.42,3.915,4.42a8.963,8.963,0,0,0,3.031-.505l.126,7.578a19.568,19.568,0,0,1-6,.947c-8.4,0-11.177-4.484-11.177-11.177V218.979H88.86v-7.767h4.989V202.94h10.167v8.272H111.4v7.767Zm43.383,10.8H124.6c.316,3.473,3.789,5.936,7.515,5.936a8.221,8.221,0,0,0,6.946-3.284l7.2,4.547c-2.968,4.294-7.893,6.694-14.271,6.694-9.472,0-17.3-6-17.3-16.608,0-10.293,7.451-16.861,16.987-16.861,9.283,0,15.787,6.378,15.787,17.113,0,.821,0,1.7-.063,2.463Zm-15.661-12.44a6.852,6.852,0,0,0-7.136,6h13.324c0-3.284-2.084-6-6.189-6Zm55.949,25.322H174.868l-10.293-15.092h-.189V242.66H153.966V194.92h10.419v29.048h.189l10.038-12.756h12.569l-12.124,14.208,12.63,17.239Zm24.5,0V225.61c0-3.536-.884-6.631-4.61-6.631-3.6,0-5.62,2.968-5.62,6.694V242.66H191.6V194.92h10.356v20.271h.126a10.247,10.247,0,0,1,9.03-4.862c8.525,0,11.493,6.567,11.493,12.882v19.45Zm38.9,0V225.484c0-3.473-.947-6.631-4.673-6.631-3.663,0-5.557,3.157-5.557,6.757v17.05H230.436V211.212h10.041v4.357h.126a10.728,10.728,0,0,1,9.409-5.241c8.462,0,11.493,6.567,11.493,12.882v19.45Zm49.382-12.882h-22.8c.316,3.473,3.789,5.936,7.515,5.936a8.221,8.221,0,0,0,6.946-3.284l7.2,4.547c-2.968,4.294-7.893,6.694-14.271,6.694-9.472,0-17.3-6-17.3-16.608,0-10.293,7.452-16.861,16.987-16.861,9.283,0,15.787,6.378,15.787,17.113,0,.821,0,1.7-.063,2.463Zm-15.661-12.44a6.852,6.852,0,0,0-7.136,6h13.324c0-3.284-2.084-6-6.189-6Z" transform="translate(4.729 26.08)" fill="#131313"/>
    <path id="Path_106440" data-name="Path 106440" d="M106.083,205.355l6.685-9.043L122.9,196l-8.732,9.355Z" transform="translate(23.76 27.273)" fill="#f47721"/>
    <path id="Path_106441" data-name="Path 106441" d="M177.006,196.889h20.932V202.5H176.889Z" transform="translate(101.995 28.256)" fill="#f47721"/>
    <g id="Group_116221" data-name="Group 116221" transform="translate(97.493 278.291)">
      <path id="Path_4104" data-name="Path 4104" d="M80.832,109.68a5.865,5.865,0,0,1,9.03-4.953l.459-2.323A8.106,8.106,0,0,0,79.2,112.854l.109-.1,1.839-1.222A5.747,5.747,0,0,1,80.832,109.68Z" transform="translate(-78.523 -101.519)" fill="#f47721"/>
      <path id="Path_4104_-_Outline" data-name="Path 4104 - Outline" d="M79.015,113.691l-.278-.637a8.6,8.6,0,0,1,7.887-12.035h.043a8.487,8.487,0,0,1,3.882.94l.336.172-.675,3.414-.618-.4A5.344,5.344,0,0,0,86.7,104.3h-.013a5.372,5.372,0,0,0-5.353,5.379,5.24,5.24,0,0,0,.285,1.693l.124.364-2.129,1.415Zm7.609-11.672a7.6,7.6,0,0,0-7.2,10.055l1.128-.75a6.188,6.188,0,0,1-.224-1.643,6.373,6.373,0,0,1,6.351-6.38H86.7a6.343,6.343,0,0,1,2.807.653l.25-1.266a7.49,7.49,0,0,0-3.092-.668Z" transform="translate(-78.523 -101.519)" fill="rgba(0,0,0,0)"/>
      <path id="Path_4105" data-name="Path 4105" d="M99.451,110.619l-4.5-1.84-1.057,4.58,2.013-.968.05-.025a5.882,5.882,0,1,1-10.315,5.6l-1.858,1.261a8.066,8.066,0,0,0,15.237-3.691c0-.013,0-.026,0-.039a8.034,8.034,0,0,0-1.11-4.1Z" transform="translate(-82.776 -107.389)" fill="#58595b"/>
      <path id="Path_4105_-_Outline" data-name="Path 4105 - Outline" d="M94.595,108.094l6.066,2.479L98.6,111.6a8.57,8.57,0,0,1,.923,3.889c0,.014,0,.03,0,.045a8.6,8.6,0,0,1-8.6,8.557h-.042a8.588,8.588,0,0,1-6.573-3.1l-.01-.012a8.616,8.616,0,0,1-.961-1.538l-.189-.389,2.706-1.836.246.539a5.374,5.374,0,0,0,.77,1.222l.013.017a5.34,5.34,0,0,0,4.237,2.106h.012a5.4,5.4,0,0,0,5.386-5.373,5.333,5.333,0,0,0-.739-2.717l-2.6,1.252Zm3.646,2.571-2.936-1.2-.691,2.993,1.117-.538.386-.194.248.354a6.332,6.332,0,0,1,1.148,3.648,6.4,6.4,0,0,1-6.386,6.371h-.015a6.85,6.85,0,0,1-5.658-3.406l-1.022.694a7.191,7.191,0,0,0,6.449,3.709h.038a7.618,7.618,0,0,0,7.6-7.566v-.037a7.567,7.567,0,0,0-1.041-3.85l-.271-.461Z" transform="translate(-82.776 -107.389)" fill="rgba(0,0,0,0)"/>
      <g id="Group_3706" data-name="Group 3706" transform="translate(3.567 3.497)">
        <path id="Path_4116" data-name="Path 4116" d="M103.021,137.085l-4.383,3.024a4.7,4.7,0,0,0,3.738,3.038V141.57H103.6v1.593a4.7,4.7,0,0,0,3.876-3.086Zm-.175,4h-1.225v-1.225h1.225Zm0-1.432h-1.225v-1.225h1.225Zm1.507,1.432h-1.225v-1.225h1.225Zm0-1.432h-1.225v-1.225h1.225Z" transform="translate(-98.355 -133.774)" fill="#f47721"/>
        <path id="Path_4116_-_Outline" data-name="Path 4116 - Outline" d="M103.018,136.48l5.061,3.4-.131.366a5.2,5.2,0,0,1-4.288,3.414l-.559.066V142.07h-.225v1.655l-.572-.083a5.2,5.2,0,0,1-4.135-3.361l-.133-.363Zm.356,1.444-.349-.234-.34.234Zm3.486,2.342-2.006-1.348v2.663H104.1v.983A4.166,4.166,0,0,0,106.86,140.266Zm-5.739-.91V139l-1.866,1.288a4.2,4.2,0,0,0,2.62,2.237v-.947h-.754Z" transform="translate(-98.355 -133.774)" fill="rgba(0,0,0,0)"/>
        <g id="Group_3699" data-name="Group 3699" transform="translate(0 0)">
          <path id="Path_4106" data-name="Path 4106" d="M97.163,124.668l1.336-.922v-1.474l.772-.339v1.281l2.544-1.755,4.734,3.18h0a5.085,5.085,0,0,0-.685-2.616l-1.572.756.459-1.989a4.695,4.695,0,0,0-7.594,3.7v.022C97.159,124.565,97.161,124.616,97.163,124.668Z" transform="translate(-97.159 -119.786)" fill="#f47721"/>
          <path id="Path_4106_-_Outline" data-name="Path 4106 - Outline" d="M96.69,125.6l-.028-.957c0-.044,0-.088,0-.132v-.022a5.2,5.2,0,0,1,4.446-5.152,5.413,5.413,0,0,1,.75-.053,5.145,5.145,0,0,1,3.207,1.108l.25.2-.3,1.284,1.05-.505.232.4a5.557,5.557,0,0,1,.752,2.883l-.01.325-.547.222-.222-.148-2.318-1.557-.38.183.088-.379-1.841-1.237-3.048,2.1h0ZM98,122.83a4.193,4.193,0,0,0-.259.831l.259-.179Zm7,.163.958.643a4.81,4.81,0,0,0-.312-.954Zm-5.227-1.826v1.094l2.041-1.408,2.09,1.4.291-1.259a4.15,4.15,0,0,0-2.337-.711,4.408,4.408,0,0,0-.611.043,4.133,4.133,0,0,0-2.426,1.256Z" transform="translate(-97.159 -119.786)" fill="rgba(0,0,0,0)"/>
        </g>
      </g>
    </g>
  </g>
</svg>
