<svg width="149" height="52" viewBox="0 0 149 52" fill="none" xmlns="http://www.w3.org/2000/svg">
<path d="M84.1192 32.135C82.6444 30.2957 79.7918 28.333 75.5591 26.2456C71.3264 24.1589 68.5707 22.388 67.2914 20.935C66.372 19.8736 65.9128 18.7273 65.9128 17.4968C65.9128 16.1002 66.5028 14.8622 67.6822 13.7865C67.8235 13.658 67.9716 13.537 68.125 13.4235C69.2495 12.5898 70.6897 12.1712 72.4494 12.1712C72.9207 12.1712 73.3739 12.2027 73.8129 12.2621C75.5223 12.4944 76.9903 13.1754 78.2155 14.3089C79.7557 15.7341 80.6239 17.6765 80.8186 20.1345L83.8193 20.3848C84.1809 16.2678 84.5552 13.0822 84.9453 10.8287C82.903 10.0041 80.9396 9.41098 79.0544 9.04717C77.5706 8.76153 76.1356 8.61796 74.7503 8.61796C74.2722 8.61796 73.8062 8.6345 73.3484 8.66081L72.2216 9.3937L72.1134 9.46436L71.9841 9.47337L67.9213 9.7748C66.4156 10.3589 65.0762 11.1632 63.905 12.1899C63.4743 12.568 63.0812 12.9544 62.7189 13.3483C60.7968 15.4357 59.8317 17.7434 59.8317 20.275C59.8317 22.3925 60.5277 24.2852 61.9214 25.9562C63.2857 27.6279 66.03 29.4944 70.1545 31.5555C74.2767 33.6181 76.9369 35.3447 78.1351 36.7398C79.3055 38.1342 79.8918 39.6548 79.8918 41.3003C79.8918 43.0021 79.2904 44.4032 78.0907 45.5044C76.8911 46.6064 75.2005 47.1558 73.0237 47.1558C70.595 47.1558 68.5504 46.4493 66.89 45.0323C65.2295 43.6177 63.9937 41.2717 63.1849 37.9959H60.3413C60.3413 41.2416 60.1181 44.8204 59.6738 48.7321C63.8178 50.261 67.6003 51.0262 71.0204 51.0262C75.7478 51.0262 79.4746 49.786 82.2002 47.3077C84.9243 44.8271 86.2886 41.8881 86.2886 38.4867C86.2886 36.1189 85.5654 34.0007 84.1192 32.135Z" fill="#FECA38"/>
<path d="M72.2214 9.39358L72.1124 9.46424L71.9839 9.47401L61.9016 10.2204L62.7277 13.382C69.4357 13.8924 74.9613 12.8994 79.0557 9.04556L78.0567 5.5991L72.2214 9.39358Z" fill="black"/>
<path d="M57.0368 10.0808L61.7716 9.72449L71.9463 8.9713L77.9102 5.09339L84.2476 0.971924L84.0619 1.90735e-06L66.9665 1.76119L53.658 9.33587L53.9737 10.3025L56.5324 10.1176V12.0472C56.0077 12.175 55.6266 12.6575 55.6477 13.2183C55.6642 13.6881 55.9596 14.0805 56.3685 14.2481C56.2219 15.535 55.4312 20.0511 55.5793 20.3472C55.6319 20.4532 55.7176 20.5254 55.8153 20.5457C55.8378 20.5502 55.8611 20.5524 55.8844 20.5517C55.9551 20.5487 56.0258 20.5201 56.0896 20.4668C56.1573 20.4104 56.2347 20.024 56.3039 19.4903C56.2941 20.1089 56.3069 20.5374 56.3535 20.6201C56.4121 20.7231 56.5016 20.79 56.6 20.8058C56.6181 20.808 56.6361 20.8095 56.6542 20.8088C56.7301 20.8058 56.8052 20.7727 56.8699 20.7125C56.9984 20.593 57.0586 20.4292 57.0435 19.237C57.1157 20.4269 57.1878 20.5863 57.3254 20.696C57.3938 20.7509 57.4712 20.7787 57.5472 20.7757C57.5652 20.7749 57.5832 20.7727 57.6005 20.7689C57.6975 20.7464 57.7824 20.6727 57.8328 20.566C57.8749 20.478 57.8538 20.033 57.796 19.3956C57.9065 19.9782 58.0177 20.3893 58.0981 20.448C58.1658 20.4961 58.2387 20.5194 58.3094 20.5171C58.3327 20.5156 58.3552 20.5126 58.3778 20.5058C58.4732 20.478 58.5792 20.4074 58.5988 20.2909C58.6589 19.9316 57.5892 15.2959 57.3465 14.2007C57.7291 13.9993 57.9861 13.5941 57.9688 13.1334C57.9485 12.5854 57.5517 12.1434 57.0368 12.0397V10.0808Z" fill="black"/>
<path d="M140.334 21.8851H86.4133V21.7588H140.334V21.8851Z" fill="#F6A200"/>
<path d="M140.313 39.1572H88.1484V38.6528H140.313V39.1572Z" fill="#F6A200"/>
<path d="M58.4203 39.1572H0.000488281V38.6528H58.4203V39.1572Z" fill="#F6A200"/>
<path d="M55.1215 21.8981H0L0.000751267 21.7718H55.1215V21.8981Z" fill="#F6A200"/>
<path d="M1.00303 34.3507C0.839914 34.5589 0.757981 34.8205 0.757981 35.1362H0.227295V32.7023H0.841418C0.997015 33.2811 1.31949 33.7501 1.81108 34.1087C2.30193 34.468 2.89576 34.6476 3.59181 34.6476C4.46301 34.6476 5.04556 34.4123 5.34022 33.944C5.43569 33.7847 5.48304 33.6073 5.48304 33.4088C5.48304 32.9871 5.3297 32.6241 5.02377 32.3219C4.71708 32.0197 4.19316 31.7363 3.452 31.471C2.71009 31.2049 2.14934 30.9614 1.76974 30.7404C1.38939 30.5201 1.09022 30.2879 0.871485 30.0428C0.485873 29.6136 0.292691 29.0491 0.292691 28.3515C0.292691 27.654 0.600128 27.0887 1.215 26.6542C1.82913 26.2205 2.57554 26.0033 3.45426 26.0033C3.95187 26.0033 4.37431 26.0604 4.72234 26.1754C5.07037 26.2897 5.33571 26.4242 5.51912 26.5783C5.61459 26.4062 5.6657 26.216 5.67397 26.0093H6.22871V28.2283H5.65593C5.59655 27.6758 5.35075 27.2496 4.91928 26.9489C4.48782 26.649 3.9887 26.4979 3.42194 26.4979C2.85517 26.4979 2.39289 26.6121 2.03509 26.8384C1.67653 27.0654 1.49763 27.3744 1.49763 27.766C1.49763 28.1568 1.66526 28.4996 1.999 28.7943C2.33275 29.0889 3.01528 29.4573 4.04508 29.8992C5.01174 30.2826 5.686 30.6712 6.06785 31.0643C6.4497 31.4575 6.64063 31.9431 6.64063 32.5211C6.64063 33.3344 6.34672 33.9749 5.76041 34.4416C5.17335 34.9092 4.46376 35.1422 3.6309 35.1422C2.79729 35.1422 2.07267 34.9791 1.45629 34.6536C1.27363 34.5567 1.12255 34.4552 1.00303 34.3507Z" fill="black"/>
<path d="M9.63397 26.4745H8.81689V26.0092H12.11V26.4745H11.2388V31.9279C11.2388 33.3516 11.6447 34.195 12.4558 34.4581C12.7264 34.5445 12.9895 34.5873 13.2465 34.5873C13.5029 34.5873 13.7254 34.5761 13.914 34.552C14.1035 34.5287 14.2914 34.4836 14.4785 34.4167C14.8957 34.2596 15.2385 33.9777 15.5068 33.5696C15.776 33.1622 15.9097 32.5796 15.9097 31.8227V26.4745H14.9792V26.0092H17.3658V26.4745H16.4946V31.9099C16.4946 32.9968 16.2082 33.8079 15.6354 34.3416C15.0626 34.8752 14.2854 35.1421 13.3029 35.1421C11.4538 35.1421 10.2924 34.4513 9.81888 33.0697C9.69185 32.7006 9.62796 32.2549 9.62796 31.7325L9.63397 26.4745Z" fill="black"/>
<path d="M26.7425 26.7694C26.9018 26.5491 26.9853 26.2951 26.9928 26.0094H27.4821V28.5088H26.9747C26.8597 27.8841 26.544 27.3925 26.0291 27.0347C25.5142 26.6769 24.9542 26.498 24.3499 26.498C22.3376 26.498 21.3394 27.8653 21.3559 30.6007C21.3672 31.6876 21.5904 32.5911 22.0234 33.3105C22.5248 34.1418 23.2524 34.5575 24.207 34.5575C24.9347 34.5575 25.5503 34.4335 26.0532 34.1854C26.5568 33.9366 26.9514 33.5999 27.2371 33.1767L27.5475 33.4541C27.3964 33.8081 27.0822 34.1471 26.6057 34.4703C25.9494 34.9183 25.1256 35.1423 24.1356 35.1423C22.7277 35.1423 21.6055 34.7146 20.7704 33.8592C19.9352 33.0031 19.5181 31.9139 19.5181 30.5902C19.5181 29.2672 19.9345 28.172 20.7681 27.3046C21.601 26.4364 22.7593 26.0027 24.2431 26.0027C25.0459 26.0027 25.7457 26.1665 26.3426 26.4943C26.5102 26.586 26.6432 26.6777 26.7425 26.7694Z" fill="black"/>
<path d="M37.1148 26.7694C37.2741 26.5491 37.3576 26.2951 37.3651 26.0094H37.8544V28.5088H37.347C37.232 27.8841 36.9163 27.3925 36.4014 27.0347C35.8865 26.6769 35.3265 26.498 34.7222 26.498C32.7099 26.498 31.7117 27.8653 31.7282 30.6007C31.7395 31.6876 31.9628 32.5911 32.3957 33.3105C32.8971 34.1418 33.6247 34.5575 34.5794 34.5575C35.307 34.5575 35.9226 34.4335 36.4255 34.1854C36.9291 33.9366 37.3237 33.5999 37.6094 33.1767L37.9198 33.4541C37.7687 33.8081 37.4545 34.1471 36.9772 34.4703C36.321 34.9183 35.4979 35.1423 34.508 35.1423C33.1001 35.1423 31.9778 34.7146 31.1434 33.8592C30.3083 33.0031 29.8904 31.9139 29.8904 30.5902C29.8904 29.2672 30.3068 28.172 31.1404 27.3046C31.9733 26.4364 33.1316 26.0027 34.6154 26.0027C35.4182 26.0027 36.1181 26.1665 36.7149 26.4943C36.8825 26.586 37.0156 26.6777 37.1148 26.7694Z" fill="black"/>
<path d="M42.9543 24.8412C42.6815 24.8352 42.4838 24.7255 42.3605 24.512C42.2372 24.2985 42.2094 24.1038 42.2771 23.9287C42.3447 23.7528 42.4507 23.6303 42.5958 23.5596C42.7401 23.4889 42.8641 23.4596 42.9679 23.4709C43.0716 23.4814 43.1859 23.5153 43.3121 23.5716L45.4913 24.5563L45.4454 24.8277L42.9543 24.8412ZM40.1145 34.6649H41.3082L41.3134 26.4746H40.1145V26.0093H47.8282V28.6718H47.3622C47.3427 28.323 47.3148 28.0133 47.2788 27.7435C47.2434 27.4721 47.1675 27.2428 47.0525 27.0534C46.8217 26.6678 46.3527 26.4746 45.6446 26.4746H42.9183V30.221H44.4096C44.7479 30.221 45.0072 30.1691 45.1883 30.0661C45.3695 29.9632 45.4792 29.782 45.5191 29.5234C45.5274 29.4483 45.5341 29.3686 45.5401 29.2836C45.5461 29.1995 45.5537 29.116 45.5612 29.0333H46.0618V32.1122H45.5612C45.5537 32.016 45.5461 31.9048 45.5401 31.7792C45.5341 31.6537 45.5274 31.5485 45.5191 31.465C45.4792 31.1756 45.3672 30.9742 45.1823 30.8584C44.9974 30.7442 44.7396 30.6863 44.4096 30.6863H42.9183V34.6649H45.4717C46.5181 34.6649 47.1517 34.1966 47.375 33.2585C47.4381 32.9879 47.4802 32.7113 47.4998 32.4249H47.965V35.1362H40.1145V34.6649Z" fill="black"/>
<path d="M51.9012 34.3507C51.7381 34.5589 51.6562 34.8205 51.6562 35.1362H51.1255V32.7023H51.7396C51.8952 33.2811 52.2184 33.7501 52.7093 34.1087C53.2009 34.468 53.794 34.6476 54.49 34.6476C55.3612 34.6476 55.9438 34.4123 56.2384 33.944C56.3339 33.7847 56.3812 33.6073 56.3812 33.4088C56.3812 32.9871 56.2279 32.6241 55.922 32.3219C55.6153 32.0197 55.0914 31.7363 54.3502 31.471C53.6083 31.2049 53.0475 30.9614 52.6679 30.7404C52.2876 30.5201 51.9884 30.2879 51.7697 30.0428C51.3841 29.6136 51.1916 29.0491 51.1916 28.3515C51.1916 27.654 51.4983 27.0887 52.1132 26.6542C52.7273 26.2205 53.4737 26.0033 54.3525 26.0033C54.8501 26.0033 55.2725 26.0604 55.6205 26.1754C55.9686 26.2897 56.2339 26.4242 56.4173 26.5783C56.5128 26.4062 56.5639 26.216 56.5722 26.0093H57.1269V28.2283H56.5541C56.4947 27.6758 56.2489 27.2496 55.8175 26.9489C55.386 26.649 54.8869 26.4979 54.3201 26.4979C53.7534 26.4979 53.2911 26.6121 52.9333 26.8384C52.5747 27.0654 52.3958 27.3744 52.3958 27.766C52.3958 28.1568 52.5635 28.4996 52.8972 28.7943C53.2317 29.0889 53.9135 29.4573 54.944 29.8992C55.9099 30.2826 56.5842 30.6712 56.966 31.0643C57.3479 31.4575 57.5388 31.9431 57.5388 32.5211C57.5388 33.3344 57.2449 33.9749 56.6586 34.4416C56.0715 34.9092 55.362 35.1422 54.5291 35.1422C53.6955 35.1422 52.9709 34.9791 52.3545 34.6536C52.1718 34.5567 52.0207 34.4552 51.9012 34.3507Z" fill="black"/>
<path d="M65.4627 34.3507C65.2996 34.5589 65.2177 34.8205 65.2177 35.1362H64.687V32.7023H65.3011C65.4567 33.2811 65.7792 33.7501 66.2708 34.1087C66.7616 34.468 67.3555 34.6476 68.0515 34.6476C68.9227 34.6476 69.5053 34.4123 69.7999 33.944C69.8954 33.7847 69.9428 33.6073 69.9428 33.4088C69.9428 32.9871 69.7894 32.6241 69.4827 32.3219C69.1768 32.0197 68.6529 31.7363 67.9117 31.471C67.1698 31.2049 66.6091 30.9614 66.2295 30.7404C65.8491 30.5201 65.5499 30.2879 65.3312 30.0428C64.9456 29.6136 64.7524 29.0491 64.7524 28.3515C64.7524 27.654 65.0598 27.0887 65.6747 26.6542C66.2888 26.2205 67.0353 26.0033 67.914 26.0033C68.4116 26.0033 68.834 26.0604 69.1821 26.1754C69.5301 26.2897 69.7954 26.4242 69.9788 26.5783C70.0743 26.4062 70.1254 26.216 70.1337 26.0093H70.6884V28.2283H70.1156C70.0563 27.6758 69.8105 27.2496 69.379 26.9489C68.9475 26.649 68.4484 26.4979 67.8817 26.4979C67.3149 26.4979 66.8526 26.6121 66.4948 26.8384C66.1363 27.0654 65.9574 27.3744 65.9574 27.766C65.9574 28.1568 66.125 28.4996 66.4587 28.7943C66.7932 29.0889 67.475 29.4573 68.5048 29.8992C69.4715 30.2826 70.1457 30.6712 70.5268 31.0643C70.9087 31.4575 71.1003 31.9431 71.1003 32.5211C71.1003 33.3344 70.8064 33.9749 70.2201 34.4416C69.6331 34.9092 68.9235 35.1422 68.0906 35.1422C67.257 35.1422 66.5324 34.9791 65.916 34.6536C65.7334 34.5567 65.5823 34.4552 65.4627 34.3507Z" fill="black"/>
<path d="M80.7984 26.7694C80.9577 26.5491 81.0412 26.2951 81.0494 26.0094H81.538V28.5088H81.0314C80.9156 27.8841 80.6007 27.3925 80.0858 27.0347C79.5709 26.6769 79.0109 26.498 78.4058 26.498C76.3935 26.498 75.396 27.8653 75.4118 30.6007C75.4231 31.6876 75.6464 32.5911 76.0801 33.3105C76.5807 34.1418 77.3091 34.5575 78.263 34.5575C78.9906 34.5575 79.6062 34.4335 80.1098 34.1854C80.6127 33.9366 81.0073 33.5999 81.293 33.1767L81.6034 33.4541C81.4523 33.8081 81.1381 34.1471 80.6616 34.4703C80.0053 34.9183 79.1815 35.1423 78.1915 35.1423C76.7836 35.1423 75.6621 34.7146 74.827 33.8592C73.9919 33.0031 73.574 31.9139 73.574 30.5902C73.574 29.2672 73.9904 28.172 74.824 27.3046C75.6576 26.4364 76.8152 26.0027 78.299 26.0027C79.1018 26.0027 79.8016 26.1665 80.3985 26.4943C80.5661 26.586 80.6992 26.6777 80.7984 26.7694Z" fill="black"/>
<path d="M90.6286 33.295C90.779 33.0281 90.9263 32.6703 91.0669 32.2208C91.2082 31.7721 91.2788 31.3015 91.2788 30.8077C91.2788 30.3146 91.2555 29.9026 91.2097 29.5711C91.1646 29.2404 91.0939 28.9262 90.9985 28.6285C90.788 27.9866 90.4723 27.4702 90.0529 27.0816C89.6334 26.693 89.1072 26.4983 88.4751 26.4983C87.4881 26.4983 86.7545 26.9282 86.2734 27.7867C85.8637 28.5256 85.666 29.4441 85.6803 30.5408C85.6939 31.6375 85.8998 32.5561 86.2975 33.295C86.7906 34.1962 87.5084 34.6472 88.451 34.6472C89.3936 34.6472 90.119 34.1962 90.6286 33.295ZM84.4656 32.8169C84.2987 32.4771 84.1732 32.1163 84.0875 31.7337C84.0018 31.3519 83.959 30.9655 83.959 30.5761C83.959 30.1853 84.0018 29.8034 84.0875 29.4291C84.1732 29.0547 84.2987 28.6984 84.4656 28.3609C84.8159 27.6506 85.3316 27.0801 86.0141 26.6494C86.6966 26.2187 87.5167 26.0029 88.4751 26.0029C89.9303 26.0029 91.0699 26.4765 91.893 27.4236C92.6289 28.2775 92.9964 29.3329 92.9964 30.5904C92.9964 31.848 92.6251 32.9033 91.8809 33.7573C91.3721 34.3391 90.7016 34.7427 89.8709 34.9675C89.4493 35.084 88.987 35.1418 88.4841 35.1418C87.9805 35.1418 87.5204 35.0847 87.1033 34.9712C86.6853 34.8562 86.3095 34.6961 85.975 34.4901C85.6412 34.2849 85.3481 34.0391 85.0955 33.7542C84.843 33.4686 84.6332 33.1567 84.4656 32.8169Z" fill="black"/>
<path d="M95.2271 34.6652H96.5034L96.5094 26.4689H95.5067V26.0088H99.1764V26.4689H98.1143V34.6652H99.9393C100.986 34.6652 101.62 34.1826 101.843 33.2182C101.906 32.9393 101.948 32.6544 101.968 32.3605H102.433V35.1365H95.2271V34.6652Z" fill="black"/>
<path d="M109.806 32.1236L108.111 28.0022L106.555 32.1236H109.806ZM104.305 34.6711H104.95L108.314 26.0087H109.006L112.603 34.6711H113.212V35.1364H109.961V34.6711H110.856L109.996 32.5889H106.375L105.588 34.6711H106.661V35.1364H104.305V34.6711Z" fill="black"/>
<path d="M115.12 34.6712H116.295L116.301 26.4749H115.12V26.0088H119.081V26.4749H117.905V34.6712H119.081V35.1365H115.12V34.6712Z" fill="black"/>
<path d="M125.265 30.5014C125.989 30.5014 126.498 30.2706 126.793 29.8083C127.007 29.4731 127.115 28.9973 127.115 28.3816C127.115 27.7653 126.99 27.3112 126.739 27.0188C126.429 26.6558 125.902 26.4746 125.159 26.4746H123.894V30.5014H125.265ZM125.373 26.0093C127.659 26.0093 128.803 26.7715 128.803 28.2974C128.803 28.989 128.592 29.5407 128.171 29.9511C127.749 30.3623 127.184 30.6254 126.476 30.7397C127.411 30.8953 128.051 31.3763 128.398 32.1836C128.537 32.5091 128.659 32.8684 128.764 33.26C128.87 33.6517 128.964 33.9298 129.048 34.0921C129.23 34.4582 129.501 34.6409 129.859 34.6409H130.098L130.109 35.1362H129.268C128.489 35.1362 127.964 35.031 127.693 34.8205C127.419 34.6055 127.211 34.1823 127.067 33.5494C126.936 32.9729 126.829 32.579 126.745 32.3685C126.57 31.9153 126.343 31.559 126.064 31.3004C125.786 31.0418 125.426 30.9125 124.985 30.9125H123.894V34.6409H125.289V35.1362H121.322V34.6409H122.283L122.289 26.4746H121.322V26.0093H125.373Z" fill="black"/>
<path d="M131.665 34.6652H132.858L132.864 26.4749H131.665V26.0088H139.378V28.672H138.913C138.893 28.3232 138.866 28.0136 138.83 27.7429C138.794 27.4723 138.718 27.2423 138.603 27.0537C138.373 26.6673 137.903 26.4749 137.195 26.4749H134.469V30.2205H135.96C136.299 30.2205 136.558 30.1694 136.739 30.0664C136.92 29.9627 137.03 29.7823 137.07 29.5229C137.077 29.4478 137.085 29.3688 137.091 29.2839C137.097 29.1997 137.104 29.1163 137.111 29.0336H137.613V32.1117H137.111C137.104 32.0155 137.097 31.905 137.091 31.7795C137.085 31.6532 137.077 31.5487 137.07 31.4653C137.03 31.1759 136.918 30.9737 136.733 30.8587C136.548 30.7437 136.29 30.6858 135.96 30.6858H134.469V34.6652H137.023C138.068 34.6652 138.703 34.1961 138.925 33.2588C138.989 32.9882 139.03 32.7108 139.051 32.4252H139.516V35.1365H131.665V34.6652Z" fill="black"/>
<path d="M142.172 38.888H142.512V36.3519H142.168V36.2076H143.132L143.964 38.2626L144.791 36.2076H145.724V36.3519H145.364V38.888H145.757V39.0316H144.529V38.888H144.865L144.867 36.4316L143.841 38.9933H143.767L142.68 36.418V38.888H143.014V39.0316H142.172V38.888Z" fill="black"/>
<path d="M147.378 38.888C147.766 38.888 148.043 38.7918 148.21 38.5979C148.378 38.4047 148.462 38.0755 148.462 37.6109V37.5538C148.454 37.1081 148.365 36.7969 148.193 36.6187C148.021 36.4406 147.757 36.3519 147.402 36.3519H147.049V38.888H147.378ZM146.182 38.888H146.551L146.552 36.3519H146.182V36.2076H147.426C148.168 36.2076 148.647 36.4421 148.865 36.9111C148.956 37.1043 149 37.3328 149 37.5974C149 37.9499 148.898 38.2566 148.694 38.519C148.529 38.7294 148.29 38.8775 147.976 38.964C147.811 39.0091 147.619 39.0316 147.4 39.0316H146.182V38.888Z" fill="black"/>
</svg>
